<?xml version="1.0" standalone="no"?><svg xmlns="http://www.w3.org/2000/svg" viewBox="0 0 1440 320"><path fill="#892be21e" fill-opacity="1" d="M0,192L40,192C80,192,160,192,240,208C320,224,400,256,480,261.3C560,267,640,245,720,229.3C800,213,880,203,960,202.7C1040,203,1120,213,1200,224C1280,235,1360,245,1400,250.7L1440,256L1440,320L1400,320C1360,320,1280,320,1200,320C1120,320,1040,320,960,320C880,320,800,320,720,320C640,320,560,320,480,320C400,320,320,320,240,320C160,320,80,320,40,320L0,320Z"></path></svg>